<?xml version="1.0" encoding="UTF-8" standalone="no"?>
<!-- Created with Inkscape (http://www.inkscape.org/) -->

<svg
   xmlns:dc="http://purl.org/dc/elements/1.1/"
   xmlns:cc="http://creativecommons.org/ns#"
   xmlns:rdf="http://www.w3.org/1999/02/22-rdf-syntax-ns#"
   xmlns:svg="http://www.w3.org/2000/svg"
   xmlns="http://www.w3.org/2000/svg"
   xmlns:sodipodi="http://sodipodi.sourceforge.net/DTD/sodipodi-0.dtd"
   xmlns:inkscape="http://www.inkscape.org/namespaces/inkscape"
   width="120"
   height="50"
   viewBox="0 0 31.75 13.229167"
   version="1.1"
   id="svg3767"
   inkscape:version="0.92.1 unknown"
   sodipodi:docname="logo.svg">
  <defs
     id="defs3761" />
  <sodipodi:namedview
     id="base"
     pagecolor="#ffffff"
     bordercolor="#666666"
     borderopacity="1.0"
     inkscape:pageopacity="0.0"
     inkscape:pageshadow="2"
     inkscape:zoom="1.4"
     inkscape:cx="-74.857297"
     inkscape:cy="-44.789115"
     inkscape:document-units="px"
     inkscape:current-layer="layer1"
     showgrid="false"
     units="px"
     inkscape:window-width="1600"
     inkscape:window-height="837"
     inkscape:window-x="0"
     inkscape:window-y="30"
     inkscape:window-maximized="1" />
  <metadata
     id="metadata3764">
    <rdf:RDF>
      <cc:Work
         rdf:about="">
        <dc:format>image/svg+xml</dc:format>
        <dc:type
           rdf:resource="http://purl.org/dc/dcmitype/StillImage" />
        <dc:title></dc:title>
      </cc:Work>
    </rdf:RDF>
  </metadata>
  <g
     inkscape:label="Layer 1"
     inkscape:groupmode="layer"
     id="layer1"
     transform="translate(0,-283.77083)">
    <path
       style="fill:#ffffff;stroke-width:0.06154462"
       d="m 4.4163165,294.03194 c -0.024125,-0.0242 -0.043857,-0.21926 -0.043857,-0.43364 v -0.38978 h 0.218218 0.218218 l -0.018199,0.41542 c -0.017231,0.39335 -0.026498,0.4164 -0.1743623,0.43365 -0.085891,0.01 -0.1758996,-0.002 -0.2000199,-0.0256 z m -1.6008406,-0.59788 c -0.039413,-0.10272 0.188304,-0.47172 0.2911063,-0.47172 0.138909,0 0.1541782,0.0752 0.054717,0.26937 -0.1406219,0.27455 -0.2855695,0.35937 -0.3458233,0.20235 z m 3.2155689,-0.13827 c -0.1207281,-0.19534 -0.1257981,-0.2309 -0.044508,-0.31219 0.081291,-0.0813 0.1071152,-0.0657 0.2267179,0.13703 0.2290783,0.38825 0.053689,0.55686 -0.1822088,0.17516 z m -4.4280916,-1.09774 c 0,-0.048 0.099749,-0.14894 0.2216659,-0.22429 0.1831278,-0.11318 0.2311148,-0.12208 0.2760093,-0.0511 0.08011,0.12651 0.072839,0.14178 -0.1225171,0.25717 -0.2172348,0.12833 -0.3751581,0.13603 -0.3751581,0.0183 z m 5.5488941,-0.0385 c -0.1672703,-0.10198 -0.1918933,-0.14174 -0.1322846,-0.21356 0.063375,-0.0764 0.09936,-0.0748 0.2670717,0.0111 0.1897265,0.0972 0.283318,0.18977 0.2852038,0.28213 0.0018,0.0868 -0.2142561,0.0458 -0.4199909,-0.0796 z m 15.3371767,-0.18448 c -0.106128,-0.0324 -0.326528,-0.14892 -0.489778,-0.25897 -1.026441,-0.69194 -0.701159,-2.33603 0.520147,-2.62901 0.936843,-0.22475 1.801217,0.46621 1.801217,1.43983 0,0.39169 -0.07264,0.61053 -0.319156,0.96145 -0.254782,0.36269 -1.064726,0.62333 -1.51243,0.4867 z m 0.745735,-0.33687 c 0.196929,-0.0409 0.564511,-0.36409 0.690054,-0.60687 0.05389,-0.10419 0.09796,-0.3292 0.09796,-0.50004 0,-0.36963 -0.118175,-0.62123 -0.413671,-0.88067 -0.543885,-0.47754 -1.392589,-0.34024 -1.761465,0.28497 -0.400364,0.67856 -0.014,1.55618 0.76407,1.73558 0.18506,0.0426 0.283236,0.0375 0.623048,-0.033 z m 2.56888,0.31348 c -1.244996,-0.40297 -1.413226,-2.05818 -0.276875,-2.72412 0.718166,-0.42088 1.745888,-0.0582 2.075673,0.73247 0.206232,0.49445 0.07725,1.20844 -0.288491,1.59692 -0.357605,0.37983 -1.020812,0.55317 -1.510307,0.39473 z m 0.966686,-0.38961 c 0.116066,-0.0592 0.296084,-0.21404 0.40004,-0.34412 0.172203,-0.21547 0.18901,-0.27654 0.18901,-0.68666 0,-0.40979 -0.01692,-0.47137 -0.188587,-0.68666 -0.518703,-0.65051 -1.431258,-0.63332 -1.90393,0.0359 -0.244305,0.34587 -0.262384,0.89356 -0.04126,1.2501 0.303348,0.48911 1.03237,0.69276 1.544729,0.4315 z m -12.722047,0.20974 c -0.09194,-0.14578 -0.248426,-0.43608 -0.347737,-0.64509 -0.09931,-0.20902 -0.199542,-0.38003 -0.22274,-0.38003 -0.02319,0 -0.07474,0.25392 -0.114539,0.56426 -0.0398,0.31034 -0.0866,0.58729 -0.104002,0.61545 -0.04053,0.0656 -0.561114,0.0672 -0.601491,0.002 -0.0463,-0.0749 0.395915,-2.73948 0.469662,-2.82994 0.03541,-0.0434 0.08944,-0.0707 0.120075,-0.0604 0.03063,0.0102 0.256891,0.40149 0.502804,0.8695 0.245913,0.46802 0.472874,0.8488 0.504361,0.84619 0.03148,-0.003 0.253344,-0.36612 0.49302,-0.8078 0.473303,-0.87218 0.549496,-0.97875 0.635302,-0.8885 0.07232,0.0761 0.514009,2.72907 0.472402,2.8375 -0.04158,0.10834 -0.583567,0.11349 -0.618039,0.006 -0.01357,-0.0423 -0.05709,-0.31926 -0.09674,-0.61544 -0.03965,-0.29619 -0.09001,-0.5375 -0.111903,-0.53625 -0.02189,8.6e-4 -0.178277,0.27786 -0.347524,0.61469 -0.169249,0.33683 -0.343276,0.6261 -0.386729,0.64281 -0.04544,0.0175 -0.150025,-0.0822 -0.246179,-0.23466 z m 5.012832,0.16475 c -0.02256,-0.0225 -0.04103,-0.6734 -0.04103,-1.4463 v -1.40527 h 0.590758 c 0.411886,0 0.653046,0.0295 0.796476,0.0976 0.47388,0.22487 0.57001,0.78239 0.20255,1.1747 l -0.125266,0.13373 0.193048,0.17399 c 0.381394,0.34374 0.293058,0.94788 -0.17339,1.18584 -0.198455,0.10125 -0.364334,0.12672 -0.82525,0.12672 -0.317277,0 -0.595331,-0.0185 -0.617897,-0.041 z m 1.346522,-0.41776 c 0.09522,-0.0952 0.151063,-0.22138 0.151063,-0.34129 0,-0.11992 -0.05584,-0.24607 -0.151063,-0.34129 -0.133695,-0.1337 -0.20446,-0.15107 -0.615449,-0.15107 h -0.464382 v 0.49236 0.49236 h 0.464382 c 0.410989,0 0.481754,-0.0174 0.615449,-0.15107 z m -0.218205,-1.22101 c 0.232349,-0.11752 0.337131,-0.37778 0.2433,-0.60431 -0.102452,-0.24733 -0.226959,-0.30076 -0.700839,-0.30076 h -0.404087 v 0.49235 0.49236 l 0.353884,-8.6e-4 c 0.194634,-4.6e-4 0.423119,-0.0359 0.507742,-0.0787 z m 8.123888,0.2335 v -1.45486 l 0.138479,0.0196 c 0.131363,0.0187 0.139378,0.0505 0.156088,0.61973 0.0097,0.33003 0.03104,0.60006 0.04745,0.60006 0.0164,0 0.313123,-0.27626 0.659374,-0.61391 0.484507,-0.47246 0.668543,-0.61426 0.7988,-0.61544 0.09308,-8.6e-4 0.169244,0.0241 0.169244,0.0553 0,0.0313 -0.296921,0.34703 -0.65982,0.70169 l -0.659827,0.64481 0.686342,0.69584 c 0.377488,0.3827 0.672774,0.71777 0.656192,0.74461 -0.01659,0.0268 -0.09704,0.0488 -0.178791,0.0488 -0.107889,0 -0.320608,-0.17716 -0.775927,-0.64622 -0.345012,-0.35542 -0.649404,-0.64621 -0.676427,-0.64621 -0.02703,0 -0.05704,0.28387 -0.06668,0.63083 -0.01673,0.60119 -0.02405,0.63175 -0.156012,0.65049 l -0.138479,0.0197 z m -18.5426027,1.4081 c -0.02413,-0.0241 0.02341,-0.54008 -0.04387,-1.13819 v -1.09433 l -0.3231082,-0.0186 -0.3231108,-0.0186 v -0.27695 -0.27695 h 0.9847157 0.984713 v 0.27695 0.27695 l -0.321734,0.0186 -0.321732,0.0186 -0.01677,1.12002 -0.01677,1.12002 -0.27924,0.0182 c -0.1535827,0.01 -0.2989827,-0.002 -0.3231097,-0.0256 z m 1.7356717,0.0228 c -0.0307,-0.0899 -0.05897,-2.61201 -0.03054,-2.72524 0.03417,-0.13615 0.07005,-0.15197 0.344692,-0.15197 h 0.306551 v 1.4463 1.4463 h -0.307723 c -0.169247,0 -0.310087,-0.007 -0.312977,-0.0154 z m 4.89488,-0.063 c -0.01654,-0.0431 -0.02258,-0.68702 -0.01345,-1.43091 l 0.01663,-1.35253 0.900563,-0.017 0.900563,-0.017 0.02307,0.17084 c 0.05877,0.43506 0.04175,0.44781 -0.597588,0.44781 H 17.05067 v 0.24358 0.24359 l 0.476971,0.018 0.47697,0.018 0.01875,0.29234 0.01875,0.29233 h -0.495729 -0.495727 v 0.27696 0.27695 h 0.578088 c 0.604257,0 0.670479,0.0304 0.622266,0.28571 -0.01189,0.0629 -0.02371,0.16279 -0.0263,0.22203 -0.0043,0.0974 -0.09012,0.1077 -0.899036,0.1077 -0.667548,0 -0.901956,-0.0199 -0.924409,-0.0784 z m -15.3542672,-1.2473 c -0.060558,-0.073 -0.065568,-0.12799 -0.018439,-0.2027 0.049356,-0.0783 0.1578625,-0.10255 0.4580161,-0.10255 h 0.3933322 l -1.842e-4,0.18464 c -1.849e-4,0.18293 -0.0036,0.1848 -0.3748917,0.2027 -0.2869458,0.0139 -0.3941784,-0.005 -0.4578336,-0.0821 z m 2.7715622,-0.28497 c -0.3554202,-0.2068 -1.0201019,-0.59126 -1.4770705,-0.85436 -0.7591759,-0.43709 -0.8308524,-0.49342 -0.8308524,-0.65299 0,-0.13295 0.032253,-0.17923 0.1351348,-0.19386 0.1388773,-0.0198 0.2790949,0.0498 1.1994297,0.595 0.293965,0.17414 0.5473691,0.31663 0.5631178,0.31663 0.01575,0 -0.2593879,-0.28362 -0.6114157,-0.63025 -0.5842166,-0.57527 -0.7650587,-0.84683 -0.5639426,-0.84683 0.041853,0 0.4464372,0.36696 0.8990655,0.81547 0.4526292,0.44851 0.7948142,0.76008 0.7604126,0.69238 -0.034403,-0.0677 -0.2866581,-0.51017 -0.5605708,-0.98328 -0.4677879,-0.80796 -0.5779853,-1.07846 -0.4393504,-1.07846 0.077061,0 0.190559,0.16242 0.5805606,0.83084 0.6522842,1.11795 0.7211662,1.22852 0.6901551,1.1078 -0.028365,-0.11042 -0.255492,-0.9634 -0.4992227,-1.87488 -0.059102,-0.22103 -0.069122,-0.35707 -0.02923,-0.39696 0.1043456,-0.10435 0.1797355,0.0385 0.3407299,0.64556 0.084606,0.31902 0.2016034,0.73235 0.2600011,0.91853 l 0.1061766,0.33849 0.030771,-1.04626 c 0.030763,-1.04591 0.030823,-1.04626 0.1776733,-1.06703 0.080795,-0.0114 0.1703808,0.0163 0.1990778,0.0616 0.058939,0.093 0.074509,3.43469 0.0167,3.58532 -0.064942,0.16925 -0.2826509,0.10435 -0.9473566,-0.28241 z m 3.4464987,0.16436 v -0.21541 h 0.3958921 c 0.3318411,0 0.4017679,0.0185 0.4322086,0.11442 0.078268,0.2466 -0.017608,0.31639 -0.4346452,0.31639 H 7.2650577 Z m -0.248758,-1.41864 c -0.088665,-0.10683 -0.091635,-0.10281 0.1773821,-0.23969 0.2466777,-0.12551 0.4380999,-0.0871 0.3135822,0.0629 -0.04366,0.0526 -0.1547725,0.13464 -0.2469192,0.18229 -0.1456559,0.0754 -0.1775328,0.0746 -0.2440451,-0.005 z m -1.0400102,-1.03872 c -0.056875,-0.0685 -0.051848,-0.12869 0.022798,-0.27304 0.1152007,-0.22278 0.2092333,-0.2896 0.291603,-0.20723 0.040526,0.0405 0.017531,0.1467 -0.068154,0.31467 -0.1458323,0.28585 -0.1462263,0.28612 -0.2462444,0.1656 z"
       id="path3705"
       inkscape:connector-curvature="0"
       sodipodi:nodetypes="cscccccccsscsccsccccccccccccccccsccccsccccccsccccscccccsssccccsccccccccccccscscccccsccssscccscccsccccccccccsccsccscscscccccsccccccccccccccccccscccsccccccccscccccccccccsccsccccscccccsssccscsscsscccccccscccsccscscccccccccccccc" />
  </g>
</svg>
